STARTFONT 2.1
FONT -FontForge-DSEG14 Classic-Regular-R-Normal--64-610-75-75-P-536-ISO10646-1
SIZE 61 75 75
FONTBOUNDINGBOX 141 64 -46 0
COMMENT "Generated by fontforge, http://fontforge.sourceforge.net"
COMMENT "Created by Keshikan(https://twitter.com/keshinomi_88pro)"
COMMENT "with FontForge 2.0 (http://fontforge.sf.net)"
STARTPROPERTIES 34
FOUNDRY "FontForge"
FAMILY_NAME "DSEG14 Classic"
WEIGHT_NAME "Regular"
SLANT "R"
SETWIDTH_NAME "Normal"
ADD_STYLE_NAME ""
PIXEL_SIZE 64
POINT_SIZE 610
RESOLUTION_X 75
RESOLUTION_Y 75
SPACING "P"
AVERAGE_WIDTH 536
CHARSET_REGISTRY "ISO10646"
CHARSET_ENCODING "1"
FONTNAME_REGISTRY ""
CHARSET_COLLECTIONS "JISX0208.1997 ISO10646-1"
FONT_NAME "DSEG14Classic-Regular"
FACE_NAME "DSEG14 Classic-Regular"
COPYRIGHT "Created by Keshikan(https://twitter.com/keshinomi_88pro)"
FONT_VERSION "0.46"
FONT_ASCENT 64
FONT_DESCENT 0
UNDERLINE_POSITION -6
UNDERLINE_THICKNESS 4
X_HEIGHT 56
CAP_HEIGHT 56
RAW_ASCENT 1000
RAW_DESCENT 0
NORM_SPACE 13
RELATIVE_WEIGHT 40
RELATIVE_SETWIDTH 50
FIGURE_WIDTH 52
AVG_LOWERCASE_WIDTH 520
AVG_UPPERCASE_WIDTH 520
ENDPROPERTIES
CHARS 109
STARTCHAR u0020
ENCODING 32
SWIDTH 200 0
DWIDTH 13 0
BBX 1 1 0 0
BITMAP
00
ENDCHAR
STARTCHAR u0021
ENCODING 33
SWIDTH 816 0
DWIDTH 52 0
BBX 1 1 0 0
BITMAP
00
ENDCHAR
STARTCHAR u0022
ENCODING 34
SWIDTH 816 0
DWIDTH 52 0
BBX 25 20 14 37
BITMAP
C0000180
C0000380
E0000380
E0000780
F0000F80
F0000F80
F8001F80
FC001F80
FC003F80
FE003F00
FE007F00
7F00FE00
3F00FE00
3F00FC00
1F00F800
1F00F800
0F00F000
0F00F000
0700E000
0300E000
ENDCHAR
STARTCHAR u0023
ENCODING 35
SWIDTH 200 0
DWIDTH 13 0
BBX 8 8 2 14
BITMAP
1C
7E
7F
FF
FF
7F
7F
3C
ENDCHAR
STARTCHAR u0024
ENCODING 36
SWIDTH 816 0
DWIDTH 52 0
BBX 40 64 6 0
BITMAP
07FFFFFFF0
0FFFFFFFF8
0FFFFFFFF0
27FFFFFFE0
73FFFFFFC0
F9FFFFFF80
FC00000000
FC007E0000
FC007E0000
FC007E0000
FC007E0000
FC007E0000
FC007E0000
FC007E0000
FC007E0000
FC007E0000
FC007E0000
FC007E0000
FC007E0000
FC007E0000
FC007E0000
FC007E0000
FC007E0000
FC007E0000
FC007E0000
FC007E0000
FC003E0000
FC003C0000
F8001C0000
F3FFDBFFC0
E7FFD3FFE0
0FFFE7FFF0
0FFFE7FFF8
07FFD3FFF3
03FFDBFFE7
00001C000F
00003C001F
00003E003F
00007E003F
00007E003F
00007E003F
00007E003F
00007E003F
00007E003F
00007E003F
00007E003F
00007E003F
00007E003F
00007E003F
00007E003F
00007E003F
00007E003F
00007E003F
00007E003F
00007E003F
00007E003F
00007E003F
000000003F
01FFFFFF9F
03FFFFFFCF
07FFFFFFE6
0FFFFFFFF0
0FFFFFFFF8
07FFFFFFF0
ENDCHAR
STARTCHAR u0025
ENCODING 37
SWIDTH 816 0
DWIDTH 52 0
BBX 40 58 6 3
BITMAP
2000000000
7000000000
F800000000
FC00000000
FCC0000180
FCC0000380
FCE0000380
FCE0000780
FCF0000F80
FCF0000F80
FCF8001F80
FCFC001F80
FCFC003F80
FCFE003F00
FCFE007F00
FC7F00FE00
FC3F00FE00
FC3F00FC00
FC1F00F800
FC1F00F800
FC0F00F000
FC0F00F000
FC0700E000
FC0300E000
FC00000000
F800000000
F3FFC3FFC0
E7FFC3FFE0
0FFFE7FFF0
0FFFE7FFF8
07FFC3FFF3
03FFC3FFE7
000000000F
000000001F
000300E03F
000700E03F
000F00F03F
000F00F03F
001F00F83F
001F00F83F
003F00FC3F
003F00FE3F
007F00FE3F
00FE007F3F
00FE007F3F
00FC003FBF
00FC001FBF
00F8001FBF
00F0000FBF
00F0000FBF
00E00007BF
00E00003BF
00C00003BF
00C00001BF
000000003F
000000001F
000000000F
0000000006
ENDCHAR
STARTCHAR u0026
ENCODING 38
SWIDTH 816 0
DWIDTH 52 0
BBX 36 64 10 0
BITMAP
7FFFFFFF00
FFFFFFFF80
FFFFFFFF00
7FFFFFFE00
3FFFFFFC00
1FFFFFF800
0000000000
0C00001800
0C00003800
0E00003800
0E00007800
0F0000F800
0F0000F800
0F8001F800
0FC001F800
0FC003F800
0FE003F000
0FE007F000
07F00FE000
03F00FE000
03F00FC000
01F00F8000
01F00F8000
00F00F0000
00F00F0000
00700E0000
00300E0000
0000000000
0000000000
0000000000
0000000000
0000000000
0000000000
0000000030
0000000070
00000000F0
00000001F0
00300E03F0
00700E03F0
00F00F03F0
00F00F03F0
01F00F83F0
01F00F83F0
03F00FC3F0
03F00FE3F0
07F00FE3F0
0FE007F3F0
0FE007F3F0
0FC003FBF0
0FC001FBF0
0F8001FBF0
0F0000FBF0
0F0000FBF0
0E00007BF0
0E00003BF0
0C00003BF0
0C00001BF0
00000003F0
1FFFFFF9F0
3FFFFFFCF0
7FFFFFFE60
FFFFFFFF00
FFFFFFFF80
7FFFFFFF00
ENDCHAR
STARTCHAR u0027
ENCODING 39
SWIDTH 816 0
DWIDTH 52 0
BBX 6 24 23 33
BITMAP
FC
FC
FC
FC
FC
FC
FC
FC
FC
FC
FC
FC
FC
FC
FC
FC
FC
FC
FC
7C
78
38
30
20
ENDCHAR
STARTCHAR u0028
ENCODING 40
SWIDTH 816 0
DWIDTH 52 0
BBX 9 50 30 7
BITMAP
0180
0380
0380
0780
0F80
0F80
1F80
1F80
3F80
3F00
7F00
FE00
FE00
FC00
F800
F800
F000
F000
E000
E000
0000
0000
0000
0000
0000
0000
0000
0000
0000
0000
E000
E000
F000
F000
F800
F800
FC00
FE00
FE00
7F00
7F00
3F80
1F80
1F80
0F80
0F80
0780
0380
0380
0180
ENDCHAR
STARTCHAR u0029
ENCODING 41
SWIDTH 816 0
DWIDTH 52 0
BBX 8 50 14 7
BITMAP
C0
C0
E0
E0
F0
F0
F8
FC
FC
FE
FE
7F
3F
3F
1F
1F
0F
0F
07
03
00
00
00
00
00
00
00
00
00
00
03
07
0F
0F
1F
1F
3F
3F
7F
FE
FE
FC
FC
F8
F0
F0
E0
E0
C0
C0
ENDCHAR
STARTCHAR u002A
ENCODING 42
SWIDTH 816 0
DWIDTH 52 0
BBX 33 50 10 7
BITMAP
0C07E01800
0C07E03800
0E07E03800
0E07E07800
0F07E0F800
0F07E0F800
0F87E1F800
0FC7E1F800
0FC7E3F800
0FE7E3F000
0FE7E7F000
07F7EFE000
03F7EFE000
03F7EFC000
01F7EF8000
01F7EF8000
00F7EF0000
00F7EF0000
0077EE0000
0033EE0000
0003C00000
0001C00000
3FFDBFFC00
7FFD3FFE00
FFFE7FFF00
FFFE7FFF80
7FFD3FFF00
3FFDBFFE00
0001C00000
0003C00000
0033EE0000
0077EE0000
00F7EF0000
00F7EF0000
01F7EF8000
01F7EF8000
03F7EFC000
03F7EFE000
07F7EFE000
0FE7E7F000
0FE7E7F000
0FC7E3F800
0FC7E1F800
0F87E1F800
0F07E0F800
0F07E0F800
0E07E07800
0E07E03800
0C07E03800
0C07E01800
ENDCHAR
STARTCHAR u002B
ENCODING 43
SWIDTH 816 0
DWIDTH 52 0
BBX 33 50 10 7
BITMAP
0007E00000
0007E00000
0007E00000
0007E00000
0007E00000
0007E00000
0007E00000
0007E00000
0007E00000
0007E00000
0007E00000
0007E00000
0007E00000
0007E00000
0007E00000
0007E00000
0007E00000
0007E00000
0007E00000
0003E00000
0003C00000
0001C00000
3FFDBFFC00
7FFD3FFE00
FFFE7FFF00
FFFE7FFF80
7FFD3FFF00
3FFDBFFE00
0001C00000
0003C00000
0003E00000
0007E00000
0007E00000
0007E00000
0007E00000
0007E00000
0007E00000
0007E00000
0007E00000
0007E00000
0007E00000
0007E00000
0007E00000
0007E00000
0007E00000
0007E00000
0007E00000
0007E00000
0007E00000
0007E00000
ENDCHAR
STARTCHAR u002C
ENCODING 44
SWIDTH 816 0
DWIDTH 52 0
BBX 8 20 14 7
BITMAP
03
07
0F
0F
1F
1F
3F
3F
7F
FE
FE
FC
FC
F8
F0
F0
E0
E0
C0
C0
ENDCHAR
STARTCHAR u002D
ENCODING 45
SWIDTH 816 0
DWIDTH 52 0
BBX 33 6 10 29
BITMAP
3FFC3FFC00
7FFC3FFE00
FFFE7FFF00
FFFE7FFF80
7FFC3FFF00
3FFC3FFE00
ENDCHAR
STARTCHAR u002E
ENCODING 46
SWIDTH 0 0
DWIDTH 0 0
BBX 8 8 -4 0
BITMAP
3C
7E
FF
FF
FF
FF
7E
3C
ENDCHAR
STARTCHAR u002F
ENCODING 47
SWIDTH 816 0
DWIDTH 52 0
BBX 25 50 14 7
BITMAP
00000180
00000380
00000380
00000780
00000F80
00000F80
00001F80
00001F80
00003F80
00003F00
00007F00
0000FE00
0000FE00
0000FC00
0000F800
0000F800
0000F000
0000F000
0000E000
0000E000
00000000
00000000
00000000
00000000
00000000
00000000
00000000
00000000
00000000
00000000
03000000
07000000
0F000000
0F000000
1F000000
1F000000
3F000000
3F000000
7F000000
FE000000
FE000000
FC000000
FC000000
F8000000
F0000000
F0000000
E0000000
E0000000
C0000000
C0000000
ENDCHAR
STARTCHAR u0030
ENCODING 48
SWIDTH 816 0
DWIDTH 52 0
BBX 40 64 6 0
BITMAP
07FFFFFFF0
0FFFFFFFF8
0FFFFFFFF0
27FFFFFFE4
73FFFFFFCE
F9FFFFFF9F
FC0000003F
FC000001BF
FC000003BF
FC000003BF
FC000007BF
FC00000FBF
FC00000FBF
FC00001FBF
FC00001FBF
FC00003FBF
FC00003F3F
FC00007F3F
FC0000FE3F
FC0000FE3F
FC0000FC3F
FC0000F83F
FC0000F83F
FC0000F03F
FC0000F03F
FC0000E03F
FC0000E03F
FC0000001F
F80000000F
F000000007
E000000003
0000000000
0000000000
C000000003
F000000007
F80000000F
FC0000001F
FC0300003F
FC0700003F
FC0F00003F
FC0F00003F
FC1F00003F
FC1F00003F
FC3F00003F
FC3F00003F
FC7F00003F
FCFE00003F
FCFE00003F
FCFC00003F
FCFC00003F
FCF800003F
FCF000003F
FCF000003F
FCE000003F
FCE000003F
FCC000003F
FCC000003F
FC0000003F
F9FFFFFF9F
F3FFFFFFCF
67FFFFFFE6
0FFFFFFFF0
0FFFFFFFF8
07FFFFFFF0
ENDCHAR
STARTCHAR u0031
ENCODING 49
SWIDTH 816 0
DWIDTH 52 0
BBX 6 58 40 3
BITMAP
10
38
7C
FC
FC
FC
FC
FC
FC
FC
FC
FC
FC
FC
FC
FC
FC
FC
FC
FC
FC
FC
FC
FC
7C
3C
1C
0C
00
00
0C
1C
3C
7C
FC
FC
FC
FC
FC
FC
FC
FC
FC
FC
FC
FC
FC
FC
FC
FC
FC
FC
FC
FC
FC
7C
3C
18
ENDCHAR
STARTCHAR u0032
ENCODING 50
SWIDTH 816 0
DWIDTH 52 0
BBX 40 64 6 0
BITMAP
07FFFFFFF0
0FFFFFFFF8
0FFFFFFFF0
07FFFFFFE4
03FFFFFFCE
01FFFFFF9F
000000003F
000000003F
000000003F
000000003F
000000003F
000000003F
000000003F
000000003F
000000003F
000000003F
000000003F
000000003F
000000003F
000000003F
000000003F
000000003F
000000003F
000000003F
000000003F
000000003F
000000003F
000000001F
000000000F
03FFC3FFC7
07FFC3FFE3
0FFFE7FFF0
0FFFE7FFF8
C7FFC3FFF0
F3FFC3FFE0
F800000000
FC00000000
FC00000000
FC00000000
FC00000000
FC00000000
FC00000000
FC00000000
FC00000000
FC00000000
FC00000000
FC00000000
FC00000000
FC00000000
FC00000000
FC00000000
FC00000000
FC00000000
FC00000000
FC00000000
FC00000000
FC00000000
FC00000000
F9FFFFFF80
F3FFFFFFC0
67FFFFFFE0
0FFFFFFFF0
0FFFFFFFF8
07FFFFFFF0
ENDCHAR
STARTCHAR u0033
ENCODING 51
SWIDTH 816 0
DWIDTH 52 0
BBX 36 64 10 0
BITMAP
7FFFFFFF00
FFFFFFFF80
FFFFFFFF00
7FFFFFFE40
3FFFFFFCE0
1FFFFFF9F0
00000003F0
00000003F0
00000003F0
00000003F0
00000003F0
00000003F0
00000003F0
00000003F0
00000003F0
00000003F0
00000003F0
00000003F0
00000003F0
00000003F0
00000003F0
00000003F0
00000003F0
00000003F0
00000003F0
00000003F0
00000003F0
00000001F0
00000000F0
3FFC3FFC70
7FFC3FFE30
FFFE7FFF00
FFFE7FFF80
7FFC3FFF30
3FFC3FFE70
00000000F0
00000001F0
00000003F0
00000003F0
00000003F0
00000003F0
00000003F0
00000003F0
00000003F0
00000003F0
00000003F0
00000003F0
00000003F0
00000003F0
00000003F0
00000003F0
00000003F0
00000003F0
00000003F0
00000003F0
00000003F0
00000003F0
00000003F0
1FFFFFF9F0
3FFFFFFCF0
7FFFFFFE60
FFFFFFFF00
FFFFFFFF80
7FFFFFFF00
ENDCHAR
STARTCHAR u0034
ENCODING 52
SWIDTH 816 0
DWIDTH 52 0
BBX 40 58 6 3
BITMAP
2000000004
700000000E
F80000001F
FC0000003F
FC0000003F
FC0000003F
FC0000003F
FC0000003F
FC0000003F
FC0000003F
FC0000003F
FC0000003F
FC0000003F
FC0000003F
FC0000003F
FC0000003F
FC0000003F
FC0000003F
FC0000003F
FC0000003F
FC0000003F
FC0000003F
FC0000003F
FC0000003F
FC0000001F
F80000000F
F3FFC3FFC7
E7FFC3FFE3
0FFFE7FFF0
0FFFE7FFF8
07FFC3FFF3
03FFC3FFE7
000000000F
000000001F
000000003F
000000003F
000000003F
000000003F
000000003F
000000003F
000000003F
000000003F
000000003F
000000003F
000000003F
000000003F
000000003F
000000003F
000000003F
000000003F
000000003F
000000003F
000000003F
000000003F
000000003F
000000001F
000000000F
0000000006
ENDCHAR
STARTCHAR u0035
ENCODING 53
SWIDTH 816 0
DWIDTH 52 0
BBX 40 64 6 0
BITMAP
07FFFFFFF0
0FFFFFFFF8
0FFFFFFFF0
27FFFFFFE0
73FFFFFFC0
F9FFFFFF80
FC00000000
FC00000000
FC00000000
FC00000000
FC00000000
FC00000000
FC00000000
FC00000000
FC00000000
FC00000000
FC00000000
FC00000000
FC00000000
FC00000000
FC00000000
FC00000000
FC00000000
FC00000000
FC00000000
FC00000000
FC00000000
FC00000000
F800000000
F3FFC3FFC0
E7FFC3FFE0
0FFFE7FFF0
0FFFE7FFF8
07FFC3FFF3
03FFC3FFE7
000000000F
000000001F
000000003F
000000003F
000000003F
000000003F
000000003F
000000003F
000000003F
000000003F
000000003F
000000003F
000000003F
000000003F
000000003F
000000003F
000000003F
000000003F
000000003F
000000003F
000000003F
000000003F
000000003F
01FFFFFF9F
03FFFFFFCF
07FFFFFFE6
0FFFFFFFF0
0FFFFFFFF8
07FFFFFFF0
ENDCHAR
STARTCHAR u0036
ENCODING 54
SWIDTH 816 0
DWIDTH 52 0
BBX 40 64 6 0
BITMAP
07FFFFFFF0
0FFFFFFFF8
0FFFFFFFF0
27FFFFFFE0
73FFFFFFC0
F9FFFFFF80
FC00000000
FC00000000
FC00000000
FC00000000
FC00000000
FC00000000
FC00000000
FC00000000
FC00000000
FC00000000
FC00000000
FC00000000
FC00000000
FC00000000
FC00000000
FC00000000
FC00000000
FC00000000
FC00000000
FC00000000
FC00000000
FC00000000
F800000000
F3FFC3FFC0
E7FFC3FFE0
0FFFE7FFF0
0FFFE7FFF8
C7FFC3FFF3
F3FFC3FFE7
F80000000F
FC0000001F
FC0000003F
FC0000003F
FC0000003F
FC0000003F
FC0000003F
FC0000003F
FC0000003F
FC0000003F
FC0000003F
FC0000003F
FC0000003F
FC0000003F
FC0000003F
FC0000003F
FC0000003F
FC0000003F
FC0000003F
FC0000003F
FC0000003F
FC0000003F
FC0000003F
F9FFFFFF9F
F3FFFFFFCF
67FFFFFFE6
0FFFFFFFF0
0FFFFFFFF8
07FFFFFFF0
ENDCHAR
STARTCHAR u0037
ENCODING 55
SWIDTH 816 0
DWIDTH 52 0
BBX 40 61 6 3
BITMAP
07FFFFFFF0
0FFFFFFFF8
0FFFFFFFF0
27FFFFFFE4
73FFFFFFCE
F9FFFFFF9F
FC0000003F
FC0000003F
FC0000003F
FC0000003F
FC0000003F
FC0000003F
FC0000003F
FC0000003F
FC0000003F
FC0000003F
FC0000003F
FC0000003F
FC0000003F
FC0000003F
FC0000003F
FC0000003F
FC0000003F
FC0000003F
FC0000003F
FC0000003F
FC0000003F
FC0000001F
F80000000F
F000000007
E000000003
0000000000
0000000000
0000000003
0000000007
000000000F
000000001F
000000003F
000000003F
000000003F
000000003F
000000003F
000000003F
000000003F
000000003F
000000003F
000000003F
000000003F
000000003F
000000003F
000000003F
000000003F
000000003F
000000003F
000000003F
000000003F
000000003F
000000003F
000000001F
000000000F
0000000006
ENDCHAR
STARTCHAR u0038
ENCODING 56
SWIDTH 816 0
DWIDTH 52 0
BBX 40 64 6 0
BITMAP
07FFFFFFF0
0FFFFFFFF8
0FFFFFFFF0
27FFFFFFE4
73FFFFFFCE
F9FFFFFF9F
FC0000003F
FC0000003F
FC0000003F
FC0000003F
FC0000003F
FC0000003F
FC0000003F
FC0000003F
FC0000003F
FC0000003F
FC0000003F
FC0000003F
FC0000003F
FC0000003F
FC0000003F
FC0000003F
FC0000003F
FC0000003F
FC0000003F
FC0000003F
FC0000003F
FC0000001F
F80000000F
F3FFC3FFC7
E7FFC3FFE3
0FFFE7FFF0
0FFFE7FFF8
C7FFC3FFF3
F3FFC3FFE7
F80000000F
FC0000001F
FC0000003F
FC0000003F
FC0000003F
FC0000003F
FC0000003F
FC0000003F
FC0000003F
FC0000003F
FC0000003F
FC0000003F
FC0000003F
FC0000003F
FC0000003F
FC0000003F
FC0000003F
FC0000003F
FC0000003F
FC0000003F
FC0000003F
FC0000003F
FC0000003F
F9FFFFFF9F
F3FFFFFFCF
67FFFFFFE6
0FFFFFFFF0
0FFFFFFFF8
07FFFFFFF0
ENDCHAR
STARTCHAR u0039
ENCODING 57
SWIDTH 816 0
DWIDTH 52 0
BBX 40 64 6 0
BITMAP
07FFFFFFF0
0FFFFFFFF8
0FFFFFFFF0
27FFFFFFE4
73FFFFFFCE
F9FFFFFF9F
FC0000003F
FC0000003F
FC0000003F
FC0000003F
FC0000003F
FC0000003F
FC0000003F
FC0000003F
FC0000003F
FC0000003F
FC0000003F
FC0000003F
FC0000003F
FC0000003F
FC0000003F
FC0000003F
FC0000003F
FC0000003F
FC0000003F
FC0000003F
FC0000003F
FC0000001F
F80000000F
F3FFC3FFC7
E7FFC3FFE3
0FFFE7FFF0
0FFFE7FFF8
07FFC3FFF3
03FFC3FFE7
000000000F
000000001F
000000003F
000000003F
000000003F
000000003F
000000003F
000000003F
000000003F
000000003F
000000003F
000000003F
000000003F
000000003F
000000003F
000000003F
000000003F
000000003F
000000003F
000000003F
000000003F
000000003F
000000003F
01FFFFFF9F
03FFFFFFCF
07FFFFFFE6
0FFFFFFFF0
0FFFFFFFF8
07FFFFFFF0
ENDCHAR
STARTCHAR u003A
ENCODING 58
SWIDTH 200 0
DWIDTH 13 0
BBX 8 34 2 14
BITMAP
3C
7F
7F
FF
FF
7F
7E
1C
00
00
00
00
00
00
00
00
00
00
00
00
00
00
00
00
00
00
1C
7E
7F
FF
FF
7F
7F
3C
ENDCHAR
STARTCHAR u003B
ENCODING 59
SWIDTH 200 0
DWIDTH 13 0
BBX 8 8 2 40
BITMAP
3C
7F
7F
FF
FF
7F
7E
1C
ENDCHAR
STARTCHAR u003C
ENCODING 60
SWIDTH 816 0
DWIDTH 52 0
BBX 33 57 10 0
BITMAP
0000001800
0000003800
0000003800
0000007800
000000F800
000000F800
000001F800
000001F800
000003F800
000003F000
000007F000
00000FE000
00000FE000
00000FC000
00000F8000
00000F8000
00000F0000
00000F0000
00000E0000
00000E0000
0000000000
0000000000
0000000000
0000000000
0000000000
0000000000
0000000000
0000000000
0000000000
0000000000
0030000000
0070000000
00F0000000
00F0000000
01F0000000
01F0000000
03F0000000
03F0000000
07F0000000
0FE0000000
0FE0000000
0FC0000000
0FC0000000
0F80000000
0F00000000
0F00000000
0E00000000
0E00000000
0C00000000
0C00000000
0000000000
1FFFFFF800
3FFFFFFC00
7FFFFFFE00
FFFFFFFF00
FFFFFFFF80
7FFFFFFF00
ENDCHAR
STARTCHAR u003D
ENCODING 61
SWIDTH 816 0
DWIDTH 52 0
BBX 33 35 10 0
BITMAP
3FFC3FFC00
7FFC3FFE00
FFFE7FFF00
FFFE7FFF80
7FFC3FFF00
3FFC3FFE00
0000000000
0000000000
0000000000
0000000000
0000000000
0000000000
0000000000
0000000000
0000000000
0000000000
0000000000
0000000000
0000000000
0000000000
0000000000
0000000000
0000000000
0000000000
0000000000
0000000000
0000000000
0000000000
0000000000
1FFFFFF800
3FFFFFFC00
7FFFFFFE00
FFFFFFFF00
FFFFFFFF80
7FFFFFFF00
ENDCHAR
STARTCHAR u003E
ENCODING 62
SWIDTH 816 0
DWIDTH 52 0
BBX 33 57 10 0
BITMAP
0C00000000
0C00000000
0E00000000
0E00000000
0F00000000
0F00000000
0F80000000
0FC0000000
0FC0000000
0FE0000000
0FE0000000
07F0000000
03F0000000
03F0000000
01F0000000
01F0000000
00F0000000
00F0000000
0070000000
0030000000
0000000000
0000000000
0000000000
0000000000
0000000000
0000000000
0000000000
0000000000
0000000000
0000000000
00000E0000
00000E0000
00000F0000
00000F0000
00000F8000
00000F8000
00000FC000
00000FE000
00000FE000
000007F000
000007F000
000003F800
000001F800
000001F800
000000F800
000000F800
0000007800
0000003800
0000003800
0000001800
0000000000
1FFFFFF800
3FFFFFFC00
7FFFFFFE00
FFFFFFFF00
FFFFFFFF80
7FFFFFFF00
ENDCHAR
STARTCHAR u003F
ENCODING 63
SWIDTH 816 0
DWIDTH 52 0
BBX 40 57 6 7
BITMAP
07FFFFFFF0
0FFFFFFFF8
0FFFFFFFF0
27FFFFFFE4
73FFFFFFCE
F9FFFFFF9F
FC0000003F
FC0000003F
FC0000003F
FC0000003F
FC0000003F
FC0000003F
FC0000003F
FC0000003F
FC0000003F
FC0000003F
FC0000003F
FC0000003F
FC0000003F
FC0000003F
FC0000003F
FC0000003F
FC0000003F
FC0000003F
FC0000003F
FC0000003F
FC0000003F
FC0000001F
F80000000F
F00003FFC7
E00003FFE3
000007FFF0
000007FFF8
000013FFF0
00001BFFE0
00001C0000
00003C0000
00003E0000
00007E0000
00007E0000
00007E0000
00007E0000
00007E0000
00007E0000
00007E0000
00007E0000
00007E0000
00007E0000
00007E0000
00007E0000
00007E0000
00007E0000
00007E0000
00007E0000
00007E0000
00007E0000
00007E0000
ENDCHAR
STARTCHAR u0040
ENCODING 64
SWIDTH 816 0
DWIDTH 52 0
BBX 40 64 6 0
BITMAP
07FFFFFFF0
0FFFFFFFF8
0FFFFFFFF0
27FFFFFFE4
73FFFFFFCE
F9FFFFFF9F
FC0000003F
FC0000003F
FC0000003F
FC0000003F
FC0000003F
FC0000003F
FC0000003F
FC0000003F
FC0000003F
FC0000003F
FC0000003F
FC0000003F
FC0000003F
FC0000003F
FC0000003F
FC0000003F
FC0000003F
FC0000003F
FC0000003F
FC0000003F
FC0000003F
FC0000001F
F80000000F
F00003FFC7
E00003FFE3
000007FFF0
000007FFF8
C00013FFF3
F0001BFFE7
F8001C000F
FC003C001F
FC003E003F
FC007E003F
FC007E003F
FC007E003F
FC007E003F
FC007E003F
FC007E003F
FC007E003F
FC007E003F
FC007E003F
FC007E003F
FC007E003F
FC007E003F
FC007E003F
FC007E003F
FC007E003F
FC007E003F
FC007E003F
FC007E003F
FC007E003F
FC0000003F
F9FFFFFF9F
F3FFFFFFCF
67FFFFFFE6
0FFFFFFFF0
0FFFFFFFF8
07FFFFFFF0
ENDCHAR
STARTCHAR u0041
ENCODING 65
SWIDTH 816 0
DWIDTH 52 0
BBX 40 61 6 3
BITMAP
07FFFFFFF0
0FFFFFFFF8
0FFFFFFFF0
27FFFFFFE4
73FFFFFFCE
F9FFFFFF9F
FC0000003F
FC0000003F
FC0000003F
FC0000003F
FC0000003F
FC0000003F
FC0000003F
FC0000003F
FC0000003F
FC0000003F
FC0000003F
FC0000003F
FC0000003F
FC0000003F
FC0000003F
FC0000003F
FC0000003F
FC0000003F
FC0000003F
FC0000003F
FC0000003F
FC0000001F
F80000000F
F3FFC3FFC7
E7FFC3FFE3
0FFFE7FFF0
0FFFE7FFF8
C7FFC3FFF3
F3FFC3FFE7
F80000000F
FC0000001F
FC0000003F
FC0000003F
FC0000003F
FC0000003F
FC0000003F
FC0000003F
FC0000003F
FC0000003F
FC0000003F
FC0000003F
FC0000003F
FC0000003F
FC0000003F
FC0000003F
FC0000003F
FC0000003F
FC0000003F
FC0000003F
FC0000003F
FC0000003F
FC0000003F
F80000001F
F00000000F
6000000006
ENDCHAR
STARTCHAR u0042
ENCODING 66
SWIDTH 816 0
DWIDTH 52 0
BBX 36 64 10 0
BITMAP
7FFFFFFF00
FFFFFFFF80
FFFFFFFF00
7FFFFFFE40
3FFFFFFCE0
1FFFFFF9F0
00000003F0
0007E003F0
0007E003F0
0007E003F0
0007E003F0
0007E003F0
0007E003F0
0007E003F0
0007E003F0
0007E003F0
0007E003F0
0007E003F0
0007E003F0
0007E003F0
0007E003F0
0007E003F0
0007E003F0
0007E003F0
0007E003F0
0007E003F0
0003E003F0
0003C001F0
0001C000F0
0001BFFC70
00013FFE30
00007FFF00
00007FFF80
00013FFF30
0001BFFE70
0001C000F0
0003C001F0
0003E003F0
0007E003F0
0007E003F0
0007E003F0
0007E003F0
0007E003F0
0007E003F0
0007E003F0
0007E003F0
0007E003F0
0007E003F0
0007E003F0
0007E003F0
0007E003F0
0007E003F0
0007E003F0
0007E003F0
0007E003F0
0007E003F0
0007E003F0
00000003F0
1FFFFFF9F0
3FFFFFFCF0
7FFFFFFE60
FFFFFFFF00
FFFFFFFF80
7FFFFFFF00
ENDCHAR
STARTCHAR u0043
ENCODING 67
SWIDTH 816 0
DWIDTH 52 0
BBX 37 64 6 0
BITMAP
07FFFFFFF0
0FFFFFFFF8
0FFFFFFFF0
27FFFFFFE0
73FFFFFFC0
F9FFFFFF80
FC00000000
FC00000000
FC00000000
FC00000000
FC00000000
FC00000000
FC00000000
FC00000000
FC00000000
FC00000000
FC00000000
FC00000000
FC00000000
FC00000000
FC00000000
FC00000000
FC00000000
FC00000000
FC00000000
FC00000000
FC00000000
FC00000000
F800000000
F000000000
E000000000
0000000000
0000000000
C000000000
F000000000
F800000000
FC00000000
FC00000000
FC00000000
FC00000000
FC00000000
FC00000000
FC00000000
FC00000000
FC00000000
FC00000000
FC00000000
FC00000000
FC00000000
FC00000000
FC00000000
FC00000000
FC00000000
FC00000000
FC00000000
FC00000000
FC00000000
FC00000000
F9FFFFFF80
F3FFFFFFC0
67FFFFFFE0
0FFFFFFFF0
0FFFFFFFF8
07FFFFFFF0
ENDCHAR
STARTCHAR u0044
ENCODING 68
SWIDTH 816 0
DWIDTH 52 0
BBX 36 64 10 0
BITMAP
7FFFFFFF00
FFFFFFFF80
FFFFFFFF00
7FFFFFFE40
3FFFFFFCE0
1FFFFFF9F0
00000003F0
0007E003F0
0007E003F0
0007E003F0
0007E003F0
0007E003F0
0007E003F0
0007E003F0
0007E003F0
0007E003F0
0007E003F0
0007E003F0
0007E003F0
0007E003F0
0007E003F0
0007E003F0
0007E003F0
0007E003F0
0007E003F0
0007E003F0
0003E003F0
0003C001F0
0001C000F0
0001800070
0001000030
0000000000
0000000000
0001000030
0001800070
0001C000F0
0003C001F0
0003E003F0
0007E003F0
0007E003F0
0007E003F0
0007E003F0
0007E003F0
0007E003F0
0007E003F0
0007E003F0
0007E003F0
0007E003F0
0007E003F0
0007E003F0
0007E003F0
0007E003F0
0007E003F0
0007E003F0
0007E003F0
0007E003F0
0007E003F0
00000003F0
1FFFFFF9F0
3FFFFFFCF0
7FFFFFFE60
FFFFFFFF00
FFFFFFFF80
7FFFFFFF00
ENDCHAR
STARTCHAR u0045
ENCODING 69
SWIDTH 816 0
DWIDTH 52 0
BBX 37 64 6 0
BITMAP
07FFFFFFF0
0FFFFFFFF8
0FFFFFFFF0
27FFFFFFE0
73FFFFFFC0
F9FFFFFF80
FC00000000
FC00000000
FC00000000
FC00000000
FC00000000
FC00000000
FC00000000
FC00000000
FC00000000
FC00000000
FC00000000
FC00000000
FC00000000
FC00000000
FC00000000
FC00000000
FC00000000
FC00000000
FC00000000
FC00000000
FC00000000
FC00000000
F800000000
F3FFC3FFC0
E7FFC3FFE0
0FFFE7FFF0
0FFFE7FFF8
C7FFC3FFF0
F3FFC3FFE0
F800000000
FC00000000
FC00000000
FC00000000
FC00000000
FC00000000
FC00000000
FC00000000
FC00000000
FC00000000
FC00000000
FC00000000
FC00000000
FC00000000
FC00000000
FC00000000
FC00000000
FC00000000
FC00000000
FC00000000
FC00000000
FC00000000
FC00000000
F9FFFFFF80
F3FFFFFFC0
67FFFFFFE0
0FFFFFFFF0
0FFFFFFFF8
07FFFFFFF0
ENDCHAR
STARTCHAR u0046
ENCODING 70
SWIDTH 816 0
DWIDTH 52 0
BBX 37 61 6 3
BITMAP
07FFFFFFF0
0FFFFFFFF8
0FFFFFFFF0
27FFFFFFE0
73FFFFFFC0
F9FFFFFF80
FC00000000
FC00000000
FC00000000
FC00000000
FC00000000
FC00000000
FC00000000
FC00000000
FC00000000
FC00000000
FC00000000
FC00000000
FC00000000
FC00000000
FC00000000
FC00000000
FC00000000
FC00000000
FC00000000
FC00000000
FC00000000
FC00000000
F800000000
F3FFC3FFC0
E7FFC3FFE0
0FFFE7FFF0
0FFFE7FFF8
C7FFC3FFF0
F3FFC3FFE0
F800000000
FC00000000
FC00000000
FC00000000
FC00000000
FC00000000
FC00000000
FC00000000
FC00000000
FC00000000
FC00000000
FC00000000
FC00000000
FC00000000
FC00000000
FC00000000
FC00000000
FC00000000
FC00000000
FC00000000
FC00000000
FC00000000
FC00000000
F800000000
F000000000
6000000000
ENDCHAR
STARTCHAR u0047
ENCODING 71
SWIDTH 816 0
DWIDTH 52 0
BBX 40 64 6 0
BITMAP
07FFFFFFF0
0FFFFFFFF8
0FFFFFFFF0
27FFFFFFE0
73FFFFFFC0
F9FFFFFF80
FC00000000
FC00000000
FC00000000
FC00000000
FC00000000
FC00000000
FC00000000
FC00000000
FC00000000
FC00000000
FC00000000
FC00000000
FC00000000
FC00000000
FC00000000
FC00000000
FC00000000
FC00000000
FC00000000
FC00000000
FC00000000
FC00000000
F800000000
F00003FFC0
E00003FFE0
000007FFF0
000007FFF8
C00003FFF3
F00003FFE7
F80000000F
FC0000001F
FC0000003F
FC0000003F
FC0000003F
FC0000003F
FC0000003F
FC0000003F
FC0000003F
FC0000003F
FC0000003F
FC0000003F
FC0000003F
FC0000003F
FC0000003F
FC0000003F
FC0000003F
FC0000003F
FC0000003F
FC0000003F
FC0000003F
FC0000003F
FC0000003F
F9FFFFFF9F
F3FFFFFFCF
67FFFFFFE6
0FFFFFFFF0
0FFFFFFFF8
07FFFFFFF0
ENDCHAR
STARTCHAR u0048
ENCODING 72
SWIDTH 816 0
DWIDTH 52 0
BBX 40 58 6 3
BITMAP
2000000004
700000000E
F80000001F
FC0000003F
FC0000003F
FC0000003F
FC0000003F
FC0000003F
FC0000003F
FC0000003F
FC0000003F
FC0000003F
FC0000003F
FC0000003F
FC0000003F
FC0000003F
FC0000003F
FC0000003F
FC0000003F
FC0000003F
FC0000003F
FC0000003F
FC0000003F
FC0000003F
FC0000001F
F80000000F
F3FFC3FFC7
E7FFC3FFE3
0FFFE7FFF0
0FFFE7FFF8
C7FFC3FFF3
F3FFC3FFE7
F80000000F
FC0000001F
FC0000003F
FC0000003F
FC0000003F
FC0000003F
FC0000003F
FC0000003F
FC0000003F
FC0000003F
FC0000003F
FC0000003F
FC0000003F
FC0000003F
FC0000003F
FC0000003F
FC0000003F
FC0000003F
FC0000003F
FC0000003F
FC0000003F
FC0000003F
FC0000003F
F80000001F
F00000000F
6000000006
ENDCHAR
STARTCHAR u0049
ENCODING 73
SWIDTH 816 0
DWIDTH 52 0
BBX 33 64 10 0
BITMAP
7FFFFFFF00
FFFFFFFF80
FFFFFFFF00
7FFFFFFE00
3FFFFFFC00
1FFFFFF800
0000000000
0007E00000
0007E00000
0007E00000
0007E00000
0007E00000
0007E00000
0007E00000
0007E00000
0007E00000
0007E00000
0007E00000
0007E00000
0007E00000
0007E00000
0007E00000
0007E00000
0007E00000
0007E00000
0007E00000
0003E00000
0003C00000
0001C00000
0001800000
0001000000
0000000000
0000000000
0001000000
0001800000
0001C00000
0003C00000
0003E00000
0007E00000
0007E00000
0007E00000
0007E00000
0007E00000
0007E00000
0007E00000
0007E00000
0007E00000
0007E00000
0007E00000
0007E00000
0007E00000
0007E00000
0007E00000
0007E00000
0007E00000
0007E00000
0007E00000
0000000000
1FFFFFF800
3FFFFFFC00
7FFFFFFE00
FFFFFFFF00
FFFFFFFF80
7FFFFFFF00
ENDCHAR
STARTCHAR u004A
ENCODING 74
SWIDTH 816 0
DWIDTH 52 0
BBX 40 61 6 0
BITMAP
0000000004
000000000E
000000001F
000000003F
000000003F
000000003F
000000003F
000000003F
000000003F
000000003F
000000003F
000000003F
000000003F
000000003F
000000003F
000000003F
000000003F
000000003F
000000003F
000000003F
000000003F
000000003F
000000003F
000000003F
000000001F
000000000F
0000000007
0000000003
0000000000
0000000000
C000000003
F000000007
F80000000F
FC0000001F
FC0000003F
FC0000003F
FC0000003F
FC0000003F
FC0000003F
FC0000003F
FC0000003F
FC0000003F
FC0000003F
FC0000003F
FC0000003F
FC0000003F
FC0000003F
FC0000003F
FC0000003F
FC0000003F
FC0000003F
FC0000003F
FC0000003F
FC0000003F
FC0000003F
F9FFFFFF9F
F3FFFFFFCF
67FFFFFFE6
0FFFFFFFF0
0FFFFFFFF8
07FFFFFFF0
ENDCHAR
STARTCHAR u004B
ENCODING 75
SWIDTH 816 0
DWIDTH 52 0
BBX 33 58 6 3
BITMAP
2000000000
7000000000
F800000000
FC00000000
FC00000180
FC00000380
FC00000380
FC00000780
FC00000F80
FC00000F80
FC00001F80
FC00001F80
FC00003F80
FC00003F00
FC00007F00
FC0000FE00
FC0000FE00
FC0000FC00
FC0000F800
FC0000F800
FC0000F000
FC0000F000
FC0000E000
FC0000E000
FC00000000
F800000000
F3FFC00000
E7FFC00000
0FFFE00000
0FFFE00000
C7FFC00000
F3FFC00000
F800000000
FC00000000
FC0000E000
FC0000E000
FC0000F000
FC0000F000
FC0000F800
FC0000F800
FC0000FC00
FC0000FE00
FC0000FE00
FC00007F00
FC00007F00
FC00003F80
FC00001F80
FC00001F80
FC00000F80
FC00000F80
FC00000780
FC00000380
FC00000380
FC00000180
FC00000000
F800000000
F000000000
6000000000
ENDCHAR
STARTCHAR u004C
ENCODING 76
SWIDTH 816 0
DWIDTH 52 0
BBX 37 61 6 0
BITMAP
2000000000
7000000000
F800000000
FC00000000
FC00000000
FC00000000
FC00000000
FC00000000
FC00000000
FC00000000
FC00000000
FC00000000
FC00000000
FC00000000
FC00000000
FC00000000
FC00000000
FC00000000
FC00000000
FC00000000
FC00000000
FC00000000
FC00000000
FC00000000
FC00000000
F800000000
F000000000
E000000000
0000000000
0000000000
E000000000
F000000000
F800000000
FC00000000
FC00000000
FC00000000
FC00000000
FC00000000
FC00000000
FC00000000
FC00000000
FC00000000
FC00000000
FC00000000
FC00000000
FC00000000
FC00000000
FC00000000
FC00000000
FC00000000
FC00000000
FC00000000
FC00000000
FC00000000
FC00000000
F9FFFFFF80
73FFFFFFC0
27FFFFFFE0
0FFFFFFFF0
0FFFFFFFF8
07FFFFFFF0
ENDCHAR
STARTCHAR u004D
ENCODING 77
SWIDTH 816 0
DWIDTH 52 0
BBX 40 58 6 3
BITMAP
2000000004
700000000E
F80000001F
FC0000003F
FCC00001BF
FCC00003BF
FCE00003BF
FCE00007BF
FCF0000FBF
FCF0000FBF
FCF8001FBF
FCFC001FBF
FCFC003FBF
FCFE003F3F
FCFE007F3F
FC7F00FE3F
FC3F00FE3F
FC3F00FC3F
FC1F00F83F
FC1F00F83F
FC0F00F03F
FC0F00F03F
FC0700E03F
FC0300E03F
FC0000001F
F80000000F
F000000007
E000000003
0000000000
0000000000
C000000003
F000000007
F80000000F
FC0000001F
FC0000003F
FC0000003F
FC0000003F
FC0000003F
FC0000003F
FC0000003F
FC0000003F
FC0000003F
FC0000003F
FC0000003F
FC0000003F
FC0000003F
FC0000003F
FC0000003F
FC0000003F
FC0000003F
FC0000003F
FC0000003F
FC0000003F
FC0000003F
FC0000003F
F80000001F
F00000000F
6000000006
ENDCHAR
STARTCHAR u004E
ENCODING 78
SWIDTH 816 0
DWIDTH 52 0
BBX 40 58 6 3
BITMAP
2000000004
700000000E
F80000001F
FC0000003F
FCC000003F
FCC000003F
FCE000003F
FCE000003F
FCF000003F
FCF000003F
FCF800003F
FCFC00003F
FCFC00003F
FCFE00003F
FCFE00003F
FC7F00003F
FC3F00003F
FC3F00003F
FC1F00003F
FC1F00003F
FC0F00003F
FC0F00003F
FC0700003F
FC0300003F
FC0000001F
F80000000F
F000000007
E000000003
0000000000
0000000000
C000000003
F000000007
F80000000F
FC0000001F
FC0000E03F
FC0000E03F
FC0000F03F
FC0000F03F
FC0000F83F
FC0000F83F
FC0000FC3F
FC0000FE3F
FC0000FE3F
FC00007F3F
FC00007F3F
FC00003FBF
FC00001FBF
FC00001FBF
FC00000FBF
FC00000FBF
FC000007BF
FC000003BF
FC000003BF
FC000001BF
FC0000003F
F80000001F
F00000000F
6000000006
ENDCHAR
STARTCHAR u004F
ENCODING 79
SWIDTH 816 0
DWIDTH 52 0
BBX 40 64 6 0
BITMAP
07FFFFFFF0
0FFFFFFFF8
0FFFFFFFF0
27FFFFFFE4
73FFFFFFCE
F9FFFFFF9F
FC0000003F
FC0000003F
FC0000003F
FC0000003F
FC0000003F
FC0000003F
FC0000003F
FC0000003F
FC0000003F
FC0000003F
FC0000003F
FC0000003F
FC0000003F
FC0000003F
FC0000003F
FC0000003F
FC0000003F
FC0000003F
FC0000003F
FC0000003F
FC0000003F
FC0000001F
F80000000F
F000000007
E000000003
0000000000
0000000000
C000000003
F000000007
F80000000F
FC0000001F
FC0000003F
FC0000003F
FC0000003F
FC0000003F
FC0000003F
FC0000003F
FC0000003F
FC0000003F
FC0000003F
FC0000003F
FC0000003F
FC0000003F
FC0000003F
FC0000003F
FC0000003F
FC0000003F
FC0000003F
FC0000003F
FC0000003F
FC0000003F
FC0000003F
F9FFFFFF9F
F3FFFFFFCF
67FFFFFFE6
0FFFFFFFF0
0FFFFFFFF8
07FFFFFFF0
ENDCHAR
STARTCHAR u0050
ENCODING 80
SWIDTH 816 0
DWIDTH 52 0
BBX 40 61 6 3
BITMAP
07FFFFFFF0
0FFFFFFFF8
0FFFFFFFF0
27FFFFFFE4
73FFFFFFCE
F9FFFFFF9F
FC0000003F
FC0000003F
FC0000003F
FC0000003F
FC0000003F
FC0000003F
FC0000003F
FC0000003F
FC0000003F
FC0000003F
FC0000003F
FC0000003F
FC0000003F
FC0000003F
FC0000003F
FC0000003F
FC0000003F
FC0000003F
FC0000003F
FC0000003F
FC0000003F
FC0000001F
F80000000F
F3FFC3FFC7
E7FFC3FFE3
0FFFE7FFF0
0FFFE7FFF8
C7FFC3FFF0
F3FFC3FFE0
F800000000
FC00000000
FC00000000
FC00000000
FC00000000
FC00000000
FC00000000
FC00000000
FC00000000
FC00000000
FC00000000
FC00000000
FC00000000
FC00000000
FC00000000
FC00000000
FC00000000
FC00000000
FC00000000
FC00000000
FC00000000
FC00000000
FC00000000
F800000000
F000000000
6000000000
ENDCHAR
STARTCHAR u0051
ENCODING 81
SWIDTH 816 0
DWIDTH 52 0
BBX 40 64 6 0
BITMAP
07FFFFFFF0
0FFFFFFFF8
0FFFFFFFF0
27FFFFFFE4
73FFFFFFCE
F9FFFFFF9F
FC0000003F
FC0000003F
FC0000003F
FC0000003F
FC0000003F
FC0000003F
FC0000003F
FC0000003F
FC0000003F
FC0000003F
FC0000003F
FC0000003F
FC0000003F
FC0000003F
FC0000003F
FC0000003F
FC0000003F
FC0000003F
FC0000003F
FC0000003F
FC0000003F
FC0000001F
F80000000F
F000000007
E000000003
0000000000
0000000000
C000000003
F000000007
F80000000F
FC0000001F
FC0000E03F
FC0000E03F
FC0000F03F
FC0000F03F
FC0000F83F
FC0000F83F
FC0000FC3F
FC0000FE3F
FC0000FE3F
FC00007F3F
FC00007F3F
FC00003FBF
FC00001FBF
FC00001FBF
FC00000FBF
FC00000FBF
FC000007BF
FC000003BF
FC000003BF
FC000001BF
FC0000003F
F9FFFFFF9F
F3FFFFFFCF
67FFFFFFE6
0FFFFFFFF0
0FFFFFFFF8
07FFFFFFF0
ENDCHAR
STARTCHAR u0052
ENCODING 82
SWIDTH 816 0
DWIDTH 52 0
BBX 40 61 6 3
BITMAP
07FFFFFFF0
0FFFFFFFF8
0FFFFFFFF0
27FFFFFFE4
73FFFFFFCE
F9FFFFFF9F
FC0000003F
FC0000003F
FC0000003F
FC0000003F
FC0000003F
FC0000003F
FC0000003F
FC0000003F
FC0000003F
FC0000003F
FC0000003F
FC0000003F
FC0000003F
FC0000003F
FC0000003F
FC0000003F
FC0000003F
FC0000003F
FC0000003F
FC0000003F
FC0000003F
FC0000001F
F80000000F
F3FFC3FFC7
E7FFC3FFE3
0FFFE7FFF0
0FFFE7FFF8
C7FFC3FFF0
F3FFC3FFE0
F800000000
FC00000000
FC0000E000
FC0000E000
FC0000F000
FC0000F000
FC0000F800
FC0000F800
FC0000FC00
FC0000FE00
FC0000FE00
FC00007F00
FC00007F00
FC00003F80
FC00001F80
FC00001F80
FC00000F80
FC00000F80
FC00000780
FC00000380
FC00000380
FC00000180
FC00000000
F800000000
F000000000
6000000000
ENDCHAR
STARTCHAR u0053
ENCODING 83
SWIDTH 816 0
DWIDTH 52 0
BBX 36 64 10 0
BITMAP
7FFFFFFF00
FFFFFFFF80
FFFFFFFF00
7FFFFFFE00
3FFFFFFC00
1FFFFFF800
0000000000
0C00000000
0C00000000
0E00000000
0E00000000
0F00000000
0F00000000
0F80000000
0FC0000000
0FC0000000
0FE0000000
0FE0000000
07F0000000
03F0000000
03F0000000
01F0000000
01F0000000
00F0000000
00F0000000
0070000000
0030000000
0000000000
0000000000
00003FFC00
00003FFE00
00007FFF00
00007FFF80
00003FFF30
00003FFE70
00000000F0
00000001F0
00000003F0
00000003F0
00000003F0
00000003F0
00000003F0
00000003F0
00000003F0
00000003F0
00000003F0
00000003F0
00000003F0
00000003F0
00000003F0
00000003F0
00000003F0
00000003F0
00000003F0
00000003F0
00000003F0
00000003F0
00000003F0
1FFFFFF9F0
3FFFFFFCF0
7FFFFFFE60
FFFFFFFF00
FFFFFFFF80
7FFFFFFF00
ENDCHAR
STARTCHAR u0054
ENCODING 84
SWIDTH 816 0
DWIDTH 52 0
BBX 33 57 10 7
BITMAP
7FFFFFFF00
FFFFFFFF80
FFFFFFFF00
7FFFFFFE00
3FFFFFFC00
1FFFFFF800
0000000000
0007E00000
0007E00000
0007E00000
0007E00000
0007E00000
0007E00000
0007E00000
0007E00000
0007E00000
0007E00000
0007E00000
0007E00000
0007E00000
0007E00000
0007E00000
0007E00000
0007E00000
0007E00000
0007E00000
0003E00000
0003C00000
0001C00000
0001800000
0001000000
0000000000
0000000000
0001000000
0001800000
0001C00000
0003C00000
0003E00000
0007E00000
0007E00000
0007E00000
0007E00000
0007E00000
0007E00000
0007E00000
0007E00000
0007E00000
0007E00000
0007E00000
0007E00000
0007E00000
0007E00000
0007E00000
0007E00000
0007E00000
0007E00000
0007E00000
ENDCHAR
STARTCHAR u0055
ENCODING 85
SWIDTH 816 0
DWIDTH 52 0
BBX 40 61 6 0
BITMAP
2000000004
700000000E
F80000001F
FC0000003F
FC0000003F
FC0000003F
FC0000003F
FC0000003F
FC0000003F
FC0000003F
FC0000003F
FC0000003F
FC0000003F
FC0000003F
FC0000003F
FC0000003F
FC0000003F
FC0000003F
FC0000003F
FC0000003F
FC0000003F
FC0000003F
FC0000003F
FC0000003F
FC0000001F
F80000000F
F000000007
E000000003
0000000000
0000000000
C000000003
F000000007
F80000000F
FC0000001F
FC0000003F
FC0000003F
FC0000003F
FC0000003F
FC0000003F
FC0000003F
FC0000003F
FC0000003F
FC0000003F
FC0000003F
FC0000003F
FC0000003F
FC0000003F
FC0000003F
FC0000003F
FC0000003F
FC0000003F
FC0000003F
FC0000003F
FC0000003F
FC0000003F
F9FFFFFF9F
F3FFFFFFCF
67FFFFFFE6
0FFFFFFFF0
0FFFFFFFF8
07FFFFFFF0
ENDCHAR
STARTCHAR u0056
ENCODING 86
SWIDTH 816 0
DWIDTH 52 0
BBX 33 58 6 3
BITMAP
2000000000
7000000000
F800000000
FC00000000
FC00000180
FC00000380
FC00000380
FC00000780
FC00000F80
FC00000F80
FC00001F80
FC00001F80
FC00003F80
FC00003F00
FC00007F00
FC0000FE00
FC0000FE00
FC0000FC00
FC0000F800
FC0000F800
FC0000F000
FC0000F000
FC0000E000
FC0000E000
FC00000000
F800000000
F000000000
E000000000
0000000000
0000000000
E000000000
F000000000
F800000000
FC00000000
FC03000000
FC07000000
FC0F000000
FC0F000000
FC1F000000
FC1F000000
FC3F000000
FC3F000000
FC7F000000
FCFE000000
FCFE000000
FCFC000000
FCFC000000
FCF8000000
FCF0000000
FCF0000000
FCE0000000
FCE0000000
FCC0000000
FCC0000000
FC00000000
F800000000
F000000000
6000000000
ENDCHAR
STARTCHAR u0057
ENCODING 87
SWIDTH 816 0
DWIDTH 52 0
BBX 40 58 6 3
BITMAP
2000000004
700000000E
F80000001F
FC0000003F
FC0000003F
FC0000003F
FC0000003F
FC0000003F
FC0000003F
FC0000003F
FC0000003F
FC0000003F
FC0000003F
FC0000003F
FC0000003F
FC0000003F
FC0000003F
FC0000003F
FC0000003F
FC0000003F
FC0000003F
FC0000003F
FC0000003F
FC0000003F
FC0000001F
F80000000F
F000000007
E000000003
0000000000
0000000000
C000000003
F000000007
F80000000F
FC0000001F
FC0300E03F
FC0700E03F
FC0F00F03F
FC0F00F03F
FC1F00F83F
FC1F00F83F
FC3F00FC3F
FC3F00FE3F
FC7F00FE3F
FCFE007F3F
FCFE007F3F
FCFC003FBF
FCFC001FBF
FCF8001FBF
FCF0000FBF
FCF0000FBF
FCE00007BF
FCE00003BF
FCC00003BF
FCC00001BF
FC0000003F
F80000001F
F00000000F
6000000006
ENDCHAR
STARTCHAR u0058
ENCODING 88
SWIDTH 816 0
DWIDTH 52 0
BBX 25 50 14 7
BITMAP
C0000180
C0000380
E0000380
E0000780
F0000F80
F0000F80
F8001F80
FC001F80
FC003F80
FE003F00
FE007F00
7F00FE00
3F00FE00
3F00FC00
1F00F800
1F00F800
0F00F000
0F00F000
0700E000
0300E000
00000000
00000000
00000000
00000000
00000000
00000000
00000000
00000000
00000000
00000000
0300E000
0700E000
0F00F000
0F00F000
1F00F800
1F00F800
3F00FC00
3F00FE00
7F00FE00
FE007F00
FE007F00
FC003F80
FC001F80
F8001F80
F0000F80
F0000F80
E0000780
E0000380
C0000380
C0000180
ENDCHAR
STARTCHAR u0059
ENCODING 89
SWIDTH 816 0
DWIDTH 52 0
BBX 25 50 14 7
BITMAP
C0000180
C0000380
E0000380
E0000780
F0000F80
F0000F80
F8001F80
FC001F80
FC003F80
FE003F00
FE007F00
7F00FE00
3F00FE00
3F00FC00
1F00F800
1F00F800
0F00F000
0F00F000
0700E000
0300E000
00000000
00000000
00000000
00000000
00000000
00000000
00100000
00180000
001C0000
003C0000
003E0000
007E0000
007E0000
007E0000
007E0000
007E0000
007E0000
007E0000
007E0000
007E0000
007E0000
007E0000
007E0000
007E0000
007E0000
007E0000
007E0000
007E0000
007E0000
007E0000
ENDCHAR
STARTCHAR u005A
ENCODING 90
SWIDTH 816 0
DWIDTH 52 0
BBX 33 64 10 0
BITMAP
7FFFFFFF00
FFFFFFFF80
FFFFFFFF00
7FFFFFFE00
3FFFFFFC00
1FFFFFF800
0000000000
0000001800
0000003800
0000003800
0000007800
000000F800
000000F800
000001F800
000001F800
000003F800
000003F000
000007F000
00000FE000
00000FE000
00000FC000
00000F8000
00000F8000
00000F0000
00000F0000
00000E0000
00000E0000
0000000000
0000000000
0000000000
0000000000
0000000000
0000000000
0000000000
0000000000
0000000000
0000000000
0030000000
0070000000
00F0000000
00F0000000
01F0000000
01F0000000
03F0000000
03F0000000
07F0000000
0FE0000000
0FE0000000
0FC0000000
0FC0000000
0F80000000
0F00000000
0F00000000
0E00000000
0E00000000
0C00000000
0C00000000
0000000000
1FFFFFF800
3FFFFFFC00
7FFFFFFE00
FFFFFFFF00
FFFFFFFF80
7FFFFFFF00
ENDCHAR
STARTCHAR u005B
ENCODING 91
SWIDTH 816 0
DWIDTH 52 0
BBX 29 50 10 7
BITMAP
00000018
00000038
00000038
00000078
000000F8
000000F8
000001F8
000001F8
000003F8
000003F0
000007F0
00000FE0
00000FE0
00000FC0
00000F80
00000F80
00000F00
00000F00
00000E00
00000E00
00000000
00000000
3FFC0000
7FFC0000
FFFE0000
FFFE0000
7FFC0000
3FFC0000
00000000
00000000
00000E00
00000E00
00000F00
00000F00
00000F80
00000F80
00000FC0
00000FE0
00000FE0
000007F0
000007F0
000003F8
000001F8
000001F8
000000F8
000000F8
00000078
00000038
00000038
00000018
ENDCHAR
STARTCHAR u005C
ENCODING 92
SWIDTH 816 0
DWIDTH 52 0
BBX 25 50 14 7
BITMAP
C0000000
C0000000
E0000000
E0000000
F0000000
F0000000
F8000000
FC000000
FC000000
FE000000
FE000000
7F000000
3F000000
3F000000
1F000000
1F000000
0F000000
0F000000
07000000
03000000
00000000
00000000
00000000
00000000
00000000
00000000
00000000
00000000
00000000
00000000
0000E000
0000E000
0000F000
0000F000
0000F800
0000F800
0000FC00
0000FE00
0000FE00
00007F00
00007F00
00003F80
00001F80
00001F80
00000F80
00000F80
00000780
00000380
00000380
00000180
ENDCHAR
STARTCHAR u005D
ENCODING 93
SWIDTH 816 0
DWIDTH 52 0
BBX 29 50 14 7
BITMAP
C0000000
C0000000
E0000000
E0000000
F0000000
F0000000
F8000000
FC000000
FC000000
FE000000
FE000000
7F000000
3F000000
3F000000
1F000000
1F000000
0F000000
0F000000
07000000
03000000
00000000
00000000
0003FFC0
0003FFE0
0007FFF0
0007FFF8
0003FFF0
0003FFE0
00000000
00000000
03000000
07000000
0F000000
0F000000
1F000000
1F000000
3F000000
3F000000
7F000000
FE000000
FE000000
FC000000
FC000000
F8000000
F0000000
F0000000
E0000000
E0000000
C0000000
C0000000
ENDCHAR
STARTCHAR u005E
ENCODING 94
SWIDTH 816 0
DWIDTH 52 0
BBX 16 28 6 33
BITMAP
2000
7000
F800
FC00
FCC0
FCC0
FCE0
FCE0
FCF0
FCF0
FCF8
FCFC
FCFC
FCFE
FCFE
FC7F
FC3F
FC3F
FC1F
FC1F
FC0F
FC0F
FC07
FC03
FC00
F800
F000
E000
ENDCHAR
STARTCHAR u005F
ENCODING 95
SWIDTH 816 0
DWIDTH 52 0
BBX 33 6 10 0
BITMAP
1FFFFFF800
3FFFFFFC00
7FFFFFFE00
FFFFFFFF00
FFFFFFFF80
7FFFFFFF00
ENDCHAR
STARTCHAR u0060
ENCODING 96
SWIDTH 816 0
DWIDTH 52 0
BBX 8 20 14 37
BITMAP
C0
C0
E0
E0
F0
F0
F8
FC
FC
FE
FE
7F
3F
3F
1F
1F
0F
0F
07
03
ENDCHAR
STARTCHAR u0061
ENCODING 97
SWIDTH 816 0
DWIDTH 52 0
BBX 37 35 6 0
BITMAP
03FFC00000
07FFC00000
0FFFE00000
0FFFE00000
C7FFD00000
F3FFD80000
F8001C0000
FC003C0000
FC003E0000
FC007E0000
FC007E0000
FC007E0000
FC007E0000
FC007E0000
FC007E0000
FC007E0000
FC007E0000
FC007E0000
FC007E0000
FC007E0000
FC007E0000
FC007E0000
FC007E0000
FC007E0000
FC007E0000
FC007E0000
FC007E0000
FC007E0000
FC00000000
F9FFFFFF80
F3FFFFFFC0
67FFFFFFE0
0FFFFFFFF0
0FFFFFFFF8
07FFFFFFF0
ENDCHAR
STARTCHAR u0062
ENCODING 98
SWIDTH 816 0
DWIDTH 52 0
BBX 37 61 6 0
BITMAP
2000000000
7000000000
F800000000
FC00000000
FC00000000
FC00000000
FC00000000
FC00000000
FC00000000
FC00000000
FC00000000
FC00000000
FC00000000
FC00000000
FC00000000
FC00000000
FC00000000
FC00000000
FC00000000
FC00000000
FC00000000
FC00000000
FC00000000
FC00000000
FC00000000
F800000000
F3FFC00000
E7FFC00000
0FFFE00000
0FFFE00000
C7FFC00000
F3FFC00000
F800000000
FC00000000
FC0000E000
FC0000E000
FC0000F000
FC0000F000
FC0000F800
FC0000F800
FC0000FC00
FC0000FE00
FC0000FE00
FC00007F00
FC00007F00
FC00003F80
FC00001F80
FC00001F80
FC00000F80
FC00000F80
FC00000780
FC00000380
FC00000380
FC00000180
FC00000000
F9FFFFFF80
F3FFFFFFC0
67FFFFFFE0
0FFFFFFFF0
0FFFFFFFF8
07FFFFFFF0
ENDCHAR
STARTCHAR u0063
ENCODING 99
SWIDTH 816 0
DWIDTH 52 0
BBX 37 35 6 0
BITMAP
03FFC3FFC0
07FFC3FFE0
0FFFE7FFF0
0FFFE7FFF8
C7FFC3FFF0
F3FFC3FFE0
F800000000
FC00000000
FC00000000
FC00000000
FC00000000
FC00000000
FC00000000
FC00000000
FC00000000
FC00000000
FC00000000
FC00000000
FC00000000
FC00000000
FC00000000
FC00000000
FC00000000
FC00000000
FC00000000
FC00000000
FC00000000
FC00000000
FC00000000
F9FFFFFF80
F3FFFFFFC0
67FFFFFFE0
0FFFFFFFF0
0FFFFFFFF8
07FFFFFFF0
ENDCHAR
STARTCHAR u0064
ENCODING 100
SWIDTH 816 0
DWIDTH 52 0
BBX 36 61 10 0
BITMAP
0000000040
00000000E0
00000001F0
00000003F0
00000003F0
00000003F0
00000003F0
00000003F0
00000003F0
00000003F0
00000003F0
00000003F0
00000003F0
00000003F0
00000003F0
00000003F0
00000003F0
00000003F0
00000003F0
00000003F0
00000003F0
00000003F0
00000003F0
00000003F0
00000001F0
00000000F0
00003FFC70
00003FFE30
00007FFF00
00007FFF80
00003FFF30
00003FFE70
00000000F0
00000001F0
00300003F0
00700003F0
00F00003F0
00F00003F0
01F00003F0
01F00003F0
03F00003F0
03F00003F0
07F00003F0
0FE00003F0
0FE00003F0
0FC00003F0
0FC00003F0
0F800003F0
0F000003F0
0F000003F0
0E000003F0
0E000003F0
0C000003F0
0C000003F0
00000003F0
1FFFFFF9F0
3FFFFFFCF0
7FFFFFFE60
FFFFFFFF00
FFFFFFFF80
7FFFFFFF00
ENDCHAR
STARTCHAR u0065
ENCODING 101
SWIDTH 816 0
DWIDTH 52 0
BBX 37 35 6 0
BITMAP
03FFC00000
07FFC00000
0FFFE00000
0FFFE00000
C7FFC00000
F3FFC00000
F800000000
FC00000000
FC03000000
FC07000000
FC0F000000
FC0F000000
FC1F000000
FC1F000000
FC3F000000
FC3F000000
FC7F000000
FCFE000000
FCFE000000
FCFC000000
FCFC000000
FCF8000000
FCF0000000
FCF0000000
FCE0000000
FCE0000000
FCC0000000
FCC0000000
FC00000000
F9FFFFFF80
F3FFFFFFC0
67FFFFFFE0
0FFFFFFFF0
0FFFFFFFF8
07FFFFFFF0
ENDCHAR
STARTCHAR u0066
ENCODING 102
SWIDTH 816 0
DWIDTH 52 0
BBX 33 50 10 7
BITMAP
0000001800
0000003800
0000003800
0000007800
000000F800
000000F800
000001F800
000001F800
000003F800
000003F000
000007F000
00000FE000
00000FE000
00000FC000
00000F8000
00000F8000
00000F0000
00000F0000
00000E0000
00000E0000
0000000000
0000000000
3FFC3FFC00
7FFC3FFE00
FFFE7FFF00
FFFE7FFF80
7FFD3FFF00
3FFDBFFE00
0001C00000
0003C00000
0003E00000
0007E00000
0007E00000
0007E00000
0007E00000
0007E00000
0007E00000
0007E00000
0007E00000
0007E00000
0007E00000
0007E00000
0007E00000
0007E00000
0007E00000
0007E00000
0007E00000
0007E00000
0007E00000
0007E00000
ENDCHAR
STARTCHAR u0067
ENCODING 103
SWIDTH 816 0
DWIDTH 52 0
BBX 36 64 10 0
BITMAP
7FFFFFFF00
FFFFFFFF80
FFFFFFFF00
7FFFFFFE40
3FFFFFFCE0
1FFFFFF9F0
00000003F0
0C000003F0
0C000003F0
0E000003F0
0E000003F0
0F000003F0
0F000003F0
0F800003F0
0FC00003F0
0FC00003F0
0FE00003F0
0FE00003F0
07F00003F0
03F00003F0
03F00003F0
01F00003F0
01F00003F0
00F00003F0
00F00003F0
00700003F0
00300003F0
00000001F0
00000000F0
00003FFC70
00003FFE30
00007FFF00
00007FFF80
00003FFF30
00003FFE70
00000000F0
00000001F0
00000003F0
00000003F0
00000003F0
00000003F0
00000003F0
00000003F0
00000003F0
00000003F0
00000003F0
00000003F0
00000003F0
00000003F0
00000003F0
00000003F0
00000003F0
00000003F0
00000003F0
00000003F0
00000003F0
00000003F0
00000003F0
1FFFFFF9F0
3FFFFFFCF0
7FFFFFFE60
FFFFFFFF00
FFFFFFFF80
7FFFFFFF00
ENDCHAR
STARTCHAR u0068
ENCODING 104
SWIDTH 816 0
DWIDTH 52 0
BBX 40 58 6 3
BITMAP
2000000000
7000000000
F800000000
FC00000000
FC00000000
FC00000000
FC00000000
FC00000000
FC00000000
FC00000000
FC00000000
FC00000000
FC00000000
FC00000000
FC00000000
FC00000000
FC00000000
FC00000000
FC00000000
FC00000000
FC00000000
FC00000000
FC00000000
FC00000000
FC00000000
F800000000
F3FFC3FFC0
E7FFC3FFE0
0FFFE7FFF0
0FFFE7FFF8
C7FFC3FFF3
F3FFC3FFE7
F80000000F
FC0000001F
FC0000003F
FC0000003F
FC0000003F
FC0000003F
FC0000003F
FC0000003F
FC0000003F
FC0000003F
FC0000003F
FC0000003F
FC0000003F
FC0000003F
FC0000003F
FC0000003F
FC0000003F
FC0000003F
FC0000003F
FC0000003F
FC0000003F
FC0000003F
FC0000003F
F80000001F
F00000000F
6000000006
ENDCHAR
STARTCHAR u0069
ENCODING 105
SWIDTH 816 0
DWIDTH 52 0
BBX 6 24 23 7
BITMAP
20
30
38
78
7C
FC
FC
FC
FC
FC
FC
FC
FC
FC
FC
FC
FC
FC
FC
FC
FC
FC
FC
FC
ENDCHAR
STARTCHAR u006A
ENCODING 106
SWIDTH 816 0
DWIDTH 52 0
BBX 16 58 30 3
BITMAP
0004
000E
001F
003F
003F
003F
003F
003F
003F
003F
003F
003F
003F
003F
003F
003F
003F
003F
003F
003F
003F
003F
003F
003F
001F
000F
0007
0003
0000
0000
0003
0007
000F
001F
E03F
E03F
F03F
F03F
F83F
F83F
FC3F
FE3F
FE3F
7F3F
7F3F
3FBF
1FBF
1FBF
0FBF
0FBF
07BF
03BF
03BF
01BF
003F
001F
000F
0006
ENDCHAR
STARTCHAR u006B
ENCODING 107
SWIDTH 816 0
DWIDTH 52 0
BBX 16 50 23 7
BITMAP
FC03
FC07
FC07
FC0F
FC1F
FC1F
FC3F
FC3F
FC7F
FC7E
FCFE
FDFC
FDFC
FDF8
FDF0
FDF0
FDE0
FDE0
FDC0
7DC0
7800
3800
3000
2000
0000
0000
2000
3000
3800
7800
7DC0
FDC0
FDE0
FDE0
FDF0
FDF0
FDF8
FDFC
FDFC
FCFE
FCFE
FC7F
FC3F
FC3F
FC1F
FC1F
FC0F
FC07
FC07
FC03
ENDCHAR
STARTCHAR u006C
ENCODING 108
SWIDTH 816 0
DWIDTH 52 0
BBX 6 58 6 3
BITMAP
20
70
F8
FC
FC
FC
FC
FC
FC
FC
FC
FC
FC
FC
FC
FC
FC
FC
FC
FC
FC
FC
FC
FC
FC
F8
F0
E0
00
00
C0
F0
F8
FC
FC
FC
FC
FC
FC
FC
FC
FC
FC
FC
FC
FC
FC
FC
FC
FC
FC
FC
FC
FC
FC
F8
F0
60
ENDCHAR
STARTCHAR u006D
ENCODING 109
SWIDTH 816 0
DWIDTH 52 0
BBX 40 32 6 3
BITMAP
03FFC3FFC0
07FFC3FFE0
0FFFE7FFF0
0FFFE7FFF8
C7FFD3FFF3
F3FFDBFFE7
F8001C000F
FC003C001F
FC003E003F
FC007E003F
FC007E003F
FC007E003F
FC007E003F
FC007E003F
FC007E003F
FC007E003F
FC007E003F
FC007E003F
FC007E003F
FC007E003F
FC007E003F
FC007E003F
FC007E003F
FC007E003F
FC007E003F
FC007E003F
FC007E003F
FC007E003F
FC0000003F
F80000001F
F00000000F
6000000006
ENDCHAR
STARTCHAR u006E
ENCODING 110
SWIDTH 816 0
DWIDTH 52 0
BBX 33 32 6 3
BITMAP
03FFC00000
07FFC00000
0FFFE00000
0FFFE00000
C7FFC00000
F3FFC00000
F800000000
FC00000000
FC0000E000
FC0000E000
FC0000F000
FC0000F000
FC0000F800
FC0000F800
FC0000FC00
FC0000FE00
FC0000FE00
FC00007F00
FC00007F00
FC00003F80
FC00001F80
FC00001F80
FC00000F80
FC00000F80
FC00000780
FC00000380
FC00000380
FC00000180
FC00000000
F800000000
F000000000
6000000000
ENDCHAR
STARTCHAR u006F
ENCODING 111
SWIDTH 816 0
DWIDTH 52 0
BBX 40 35 6 0
BITMAP
03FFC3FFC0
07FFC3FFE0
0FFFE7FFF0
0FFFE7FFF8
C7FFC3FFF3
F3FFC3FFE7
F80000000F
FC0000001F
FC0000003F
FC0000003F
FC0000003F
FC0000003F
FC0000003F
FC0000003F
FC0000003F
FC0000003F
FC0000003F
FC0000003F
FC0000003F
FC0000003F
FC0000003F
FC0000003F
FC0000003F
FC0000003F
FC0000003F
FC0000003F
FC0000003F
FC0000003F
FC0000003F
F9FFFFFF9F
F3FFFFFFCF
67FFFFFFE6
0FFFFFFFF0
0FFFFFFFF8
07FFFFFFF0
ENDCHAR
STARTCHAR u0070
ENCODING 112
SWIDTH 816 0
DWIDTH 52 0
BBX 37 61 6 3
BITMAP
07FFFFFFF0
0FFFFFFFF8
0FFFFFFFF0
27FFFFFFE0
73FFFFFFC0
F9FFFFFF80
FC00000000
FC00000180
FC00000380
FC00000380
FC00000780
FC00000F80
FC00000F80
FC00001F80
FC00001F80
FC00003F80
FC00003F00
FC00007F00
FC0000FE00
FC0000FE00
FC0000FC00
FC0000F800
FC0000F800
FC0000F000
FC0000F000
FC0000E000
FC0000E000
FC00000000
F800000000
F3FFC00000
E7FFC00000
0FFFE00000
0FFFE00000
C7FFC00000
F3FFC00000
F800000000
FC00000000
FC00000000
FC00000000
FC00000000
FC00000000
FC00000000
FC00000000
FC00000000
FC00000000
FC00000000
FC00000000
FC00000000
FC00000000
FC00000000
FC00000000
FC00000000
FC00000000
FC00000000
FC00000000
FC00000000
FC00000000
FC00000000
F800000000
F000000000
6000000000
ENDCHAR
STARTCHAR u0071
ENCODING 113
SWIDTH 816 0
DWIDTH 52 0
BBX 36 61 10 3
BITMAP
7FFFFFFF00
FFFFFFFF80
FFFFFFFF00
7FFFFFFE40
3FFFFFFCE0
1FFFFFF9F0
00000003F0
0C000003F0
0C000003F0
0E000003F0
0E000003F0
0F000003F0
0F000003F0
0F800003F0
0FC00003F0
0FC00003F0
0FE00003F0
0FE00003F0
07F00003F0
03F00003F0
03F00003F0
01F00003F0
01F00003F0
00F00003F0
00F00003F0
00700003F0
00300003F0
00000001F0
00000000F0
00003FFC70
00003FFE30
00007FFF00
00007FFF80
00003FFF30
00003FFE70
00000000F0
00000001F0
00000003F0
00000003F0
00000003F0
00000003F0
00000003F0
00000003F0
00000003F0
00000003F0
00000003F0
00000003F0
00000003F0
00000003F0
00000003F0
00000003F0
00000003F0
00000003F0
00000003F0
00000003F0
00000003F0
00000003F0
00000003F0
00000001F0
00000000F0
0000000060
ENDCHAR
STARTCHAR u0072
ENCODING 114
SWIDTH 816 0
DWIDTH 52 0
BBX 20 28 23 7
BITMAP
07FF80
07FFC0
0FFFE0
0FFFF0
27FFE0
37FFC0
380000
780000
7C0000
FC0000
FC0000
FC0000
FC0000
FC0000
FC0000
FC0000
FC0000
FC0000
FC0000
FC0000
FC0000
FC0000
FC0000
FC0000
FC0000
FC0000
FC0000
FC0000
ENDCHAR
STARTCHAR u0073
ENCODING 115
SWIDTH 816 0
DWIDTH 52 0
BBX 33 35 10 0
BITMAP
00003FFC00
00003FFE00
00007FFF00
00007FFF80
00003FFF00
00003FFE00
0000000000
0000000000
00000E0000
00000E0000
00000F0000
00000F0000
00000F8000
00000F8000
00000FC000
00000FE000
00000FE000
000007F000
000007F000
000003F800
000001F800
000001F800
000000F800
000000F800
0000007800
0000003800
0000003800
0000001800
0000000000
1FFFFFF800
3FFFFFFC00
7FFFFFFE00
FFFFFFFF00
FFFFFFFF80
7FFFFFFF00
ENDCHAR
STARTCHAR u0074
ENCODING 116
SWIDTH 816 0
DWIDTH 52 0
BBX 37 61 6 0
BITMAP
2000000000
7000000000
F800000000
FC00000000
FC00000000
FC00000000
FC00000000
FC00000000
FC00000000
FC00000000
FC00000000
FC00000000
FC00000000
FC00000000
FC00000000
FC00000000
FC00000000
FC00000000
FC00000000
FC00000000
FC00000000
FC00000000
FC00000000
FC00000000
FC00000000
F800000000
F3FFC00000
E7FFC00000
0FFFE00000
0FFFE00000
C7FFC00000
F3FFC00000
F800000000
FC00000000
FC00000000
FC00000000
FC00000000
FC00000000
FC00000000
FC00000000
FC00000000
FC00000000
FC00000000
FC00000000
FC00000000
FC00000000
FC00000000
FC00000000
FC00000000
FC00000000
FC00000000
FC00000000
FC00000000
FC00000000
FC00000000
F9FFFFFF80
F3FFFFFFC0
67FFFFFFE0
0FFFFFFFF0
0FFFFFFFF8
07FFFFFFF0
ENDCHAR
STARTCHAR u0075
ENCODING 117
SWIDTH 816 0
DWIDTH 52 0
BBX 40 31 6 0
BITMAP
C000000003
F000000007
F80000000F
FC0000001F
FC0000003F
FC0000003F
FC0000003F
FC0000003F
FC0000003F
FC0000003F
FC0000003F
FC0000003F
FC0000003F
FC0000003F
FC0000003F
FC0000003F
FC0000003F
FC0000003F
FC0000003F
FC0000003F
FC0000003F
FC0000003F
FC0000003F
FC0000003F
FC0000003F
F9FFFFFF9F
F3FFFFFFCF
67FFFFFFE6
0FFFFFFFF0
0FFFFFFFF8
07FFFFFFF0
ENDCHAR
STARTCHAR u0076
ENCODING 118
SWIDTH 816 0
DWIDTH 52 0
BBX 16 28 6 3
BITMAP
E000
F000
F800
FC00
FC03
FC07
FC0F
FC0F
FC1F
FC1F
FC3F
FC3F
FC7F
FCFE
FCFE
FCFC
FCFC
FCF8
FCF0
FCF0
FCE0
FCE0
FCC0
FCC0
FC00
F800
F000
6000
ENDCHAR
STARTCHAR u0077
ENCODING 119
SWIDTH 816 0
DWIDTH 52 0
BBX 40 28 6 3
BITMAP
C000000003
F000000007
F80000000F
FC0000001F
FC0300E03F
FC0700E03F
FC0F00F03F
FC0F00F03F
FC1F00F83F
FC1F00F83F
FC3F00FC3F
FC3F00FE3F
FC7F00FE3F
FCFE007F3F
FCFE007F3F
FCFC003FBF
FCFC001FBF
FCF8001FBF
FCF0000FBF
FCF0000FBF
FCE00007BF
FCE00003BF
FCC00003BF
FCC00001BF
FC0000003F
F80000001F
F00000000F
6000000006
ENDCHAR
STARTCHAR u0078
ENCODING 120
SWIDTH 816 0
DWIDTH 52 0
BBX 29 50 10 7
BITMAP
00000018
00000038
00000038
00000078
000000F8
000000F8
000001F8
000001F8
000003F8
000003F0
000007F0
00000FE0
00000FE0
00000FC0
00000F80
00000F80
00000F00
00000F00
00000E00
00000E00
00000000
00000000
3FFC0000
7FFC0000
FFFE0000
FFFE0000
7FFC0000
3FFC0000
00000000
00000000
00300E00
00700E00
00F00F00
00F00F00
01F00F80
01F00F80
03F00FC0
03F00FE0
07F00FE0
0FE007F0
0FE007F0
0FC003F8
0FC001F8
0F8001F8
0F0000F8
0F0000F8
0E000078
0E000038
0C000038
0C000018
ENDCHAR
STARTCHAR u0079
ENCODING 121
SWIDTH 816 0
DWIDTH 52 0
BBX 36 61 10 0
BITMAP
0000000040
00000000E0
00000001F0
00000003F0
0C000003F0
0C000003F0
0E000003F0
0E000003F0
0F000003F0
0F000003F0
0F800003F0
0FC00003F0
0FC00003F0
0FE00003F0
0FE00003F0
07F00003F0
03F00003F0
03F00003F0
01F00003F0
01F00003F0
00F00003F0
00F00003F0
00700003F0
00300003F0
00000001F0
00000000F0
00003FFC70
00003FFE30
00007FFF00
00007FFF80
00003FFF30
00003FFE70
00000000F0
00000001F0
00000003F0
00000003F0
00000003F0
00000003F0
00000003F0
00000003F0
00000003F0
00000003F0
00000003F0
00000003F0
00000003F0
00000003F0
00000003F0
00000003F0
00000003F0
00000003F0
00000003F0
00000003F0
00000003F0
00000003F0
00000003F0
1FFFFFF9F0
3FFFFFFCF0
7FFFFFFE60
FFFFFFFF00
FFFFFFFF80
7FFFFFFF00
ENDCHAR
STARTCHAR u007A
ENCODING 122
SWIDTH 816 0
DWIDTH 52 0
BBX 33 35 10 0
BITMAP
3FFC000000
7FFC000000
FFFE000000
FFFE000000
7FFC000000
3FFC000000
0000000000
0000000000
0030000000
0070000000
00F0000000
00F0000000
01F0000000
01F0000000
03F0000000
03F0000000
07F0000000
0FE0000000
0FE0000000
0FC0000000
0FC0000000
0F80000000
0F00000000
0F00000000
0E00000000
0E00000000
0C00000000
0C00000000
0000000000
1FFFFFF800
3FFFFFFC00
7FFFFFFE00
FFFFFFFF00
FFFFFFFF80
7FFFFFFF00
ENDCHAR
STARTCHAR u007B
ENCODING 123
SWIDTH 816 0
DWIDTH 52 0
BBX 33 64 10 0
BITMAP
7FFFFFFF00
FFFFFFFF80
FFFFFFFF00
7FFFFFFE00
3FFFFFFC00
1FFFFFF800
0000000000
0C00000000
0C00000000
0E00000000
0E00000000
0F00000000
0F00000000
0F80000000
0FC0000000
0FC0000000
0FE0000000
0FE0000000
07F0000000
03F0000000
03F0000000
01F0000000
01F0000000
00F0000000
00F0000000
0070000000
0030000000
0000000000
0000000000
3FFC000000
7FFC000000
FFFE000000
FFFE000000
7FFC000000
3FFC000000
0000000000
0000000000
0030000000
0070000000
00F0000000
00F0000000
01F0000000
01F0000000
03F0000000
03F0000000
07F0000000
0FE0000000
0FE0000000
0FC0000000
0FC0000000
0F80000000
0F00000000
0F00000000
0E00000000
0E00000000
0C00000000
0C00000000
0000000000
1FFFFFF800
3FFFFFFC00
7FFFFFFE00
FFFFFFFF00
FFFFFFFF80
7FFFFFFF00
ENDCHAR
STARTCHAR u007C
ENCODING 124
SWIDTH 816 0
DWIDTH 52 0
BBX 6 50 23 7
BITMAP
FC
FC
FC
FC
FC
FC
FC
FC
FC
FC
FC
FC
FC
FC
FC
FC
FC
FC
FC
7C
78
38
30
20
00
00
20
30
38
78
7C
FC
FC
FC
FC
FC
FC
FC
FC
FC
FC
FC
FC
FC
FC
FC
FC
FC
FC
FC
ENDCHAR
STARTCHAR u007D
ENCODING 125
SWIDTH 816 0
DWIDTH 52 0
BBX 33 64 10 0
BITMAP
7FFFFFFF00
FFFFFFFF80
FFFFFFFF00
7FFFFFFE00
3FFFFFFC00
1FFFFFF800
0000000000
0000001800
0000003800
0000003800
0000007800
000000F800
000000F800
000001F800
000001F800
000003F800
000003F000
000007F000
00000FE000
00000FE000
00000FC000
00000F8000
00000F8000
00000F0000
00000F0000
00000E0000
00000E0000
0000000000
0000000000
00003FFC00
00003FFE00
00007FFF00
00007FFF80
00003FFF00
00003FFE00
0000000000
0000000000
00000E0000
00000E0000
00000F0000
00000F0000
00000F8000
00000F8000
00000FC000
00000FE000
00000FE000
000007F000
000007F000
000003F800
000001F800
000001F800
000000F800
000000F800
0000007800
0000003800
0000003800
0000001800
0000000000
1FFFFFF800
3FFFFFFC00
7FFFFFFE00
FFFFFFFF00
FFFFFFFF80
7FFFFFFF00
ENDCHAR
STARTCHAR u007E
ENCODING 126
SWIDTH 816 0
DWIDTH 52 0
BBX 40 64 6 0
BITMAP
07FFFFFFF0
0FFFFFFFF8
0FFFFFFFF0
27FFFFFFE4
73FFFFFFCE
F9FFFFFF9F
FC0000003F
FCC07E01BF
FCC07E03BF
FCE07E03BF
FCE07E07BF
FCF07E0FBF
FCF07E0FBF
FCF87E1FBF
FCFC7E1FBF
FCFC7E3FBF
FCFE7E3F3F
FCFE7E7F3F
FC7F7EFE3F
FC3F7EFE3F
FC3F7EFC3F
FC1F7EF83F
FC1F7EF83F
FC0F7EF03F
FC0F7EF03F
FC077EE03F
FC033EE03F
FC003C001F
F8001C000F
F3FFDBFFC7
E7FFD3FFE3
0FFFE7FFF0
0FFFE7FFF8
C7FFD3FFF3
F3FFDBFFE7
F8001C000F
FC003C001F
FC033EE03F
FC077EE03F
FC0F7EF03F
FC0F7EF03F
FC1F7EF83F
FC1F7EF83F
FC3F7EFC3F
FC3F7EFE3F
FC7F7EFE3F
FCFE7E7F3F
FCFE7E7F3F
FCFC7E3FBF
FCFC7E1FBF
FCF87E1FBF
FCF07E0FBF
FCF07E0FBF
FCE07E07BF
FCE07E03BF
FCC07E03BF
FCC07E01BF
FC0000003F
F9FFFFFF9F
F3FFFFFFCF
67FFFFFFE6
0FFFFFFFF0
0FFFFFFFF8
07FFFFFFF0
ENDCHAR
STARTCHAR u00A0
ENCODING 160
SWIDTH 200 0
DWIDTH 13 0
BBX 1 1 0 0
BITMAP
00
ENDCHAR
STARTCHAR u00A1
ENCODING 161
SWIDTH 200 0
DWIDTH 13 0
BBX 8 8 2 40
BITMAP
3C
7F
7F
FF
FF
7F
7E
1C
ENDCHAR
STARTCHAR u00A5
ENCODING 165
SWIDTH 816 0
DWIDTH 52 0
BBX 33 50 10 7
BITMAP
0C00001800
0C00003800
0E00003800
0E00007800
0F0000F800
0F0000F800
0F8001F800
0FC001F800
0FC003F800
0FE003F000
0FE007F000
07F00FE000
03F00FE000
03F00FC000
01F00F8000
01F00F8000
00F00F0000
00F00F0000
00700E0000
00300E0000
0000000000
0000000000
3FFC3FFC00
7FFC3FFE00
FFFE7FFF00
FFFE7FFF80
7FFD3FFF00
3FFDBFFE00
0001C00000
0003C00000
0003E00000
0007E00000
0007E00000
0007E00000
0007E00000
0007E00000
0007E00000
0007E00000
0007E00000
0007E00000
0007E00000
0007E00000
0007E00000
0007E00000
0007E00000
0007E00000
0007E00000
0007E00000
0007E00000
0007E00000
ENDCHAR
STARTCHAR u00A6
ENCODING 166
SWIDTH 816 0
DWIDTH 52 0
BBX 6 50 23 7
BITMAP
FC
FC
FC
FC
FC
FC
FC
FC
FC
FC
FC
FC
FC
FC
FC
FC
FC
FC
FC
7C
78
38
30
20
00
00
20
30
38
78
7C
FC
FC
FC
FC
FC
FC
FC
FC
FC
FC
FC
FC
FC
FC
FC
FC
FC
FC
FC
ENDCHAR
STARTCHAR u00AC
ENCODING 172
SWIDTH 816 0
DWIDTH 52 0
BBX 36 32 10 3
BITMAP
3FFC3FFC00
7FFC3FFE00
FFFE7FFF00
FFFE7FFF80
7FFC3FFF30
3FFC3FFE70
00000000F0
00000001F0
00000003F0
00000003F0
00000003F0
00000003F0
00000003F0
00000003F0
00000003F0
00000003F0
00000003F0
00000003F0
00000003F0
00000003F0
00000003F0
00000003F0
00000003F0
00000003F0
00000003F0
00000003F0
00000003F0
00000003F0
00000003F0
00000001F0
00000000F0
0000000060
ENDCHAR
STARTCHAR u00AD
ENCODING 173
SWIDTH 816 0
DWIDTH 52 0
BBX 33 6 10 29
BITMAP
3FFC3FFC00
7FFC3FFE00
FFFE7FFF00
FFFE7FFF80
7FFC3FFF00
3FFC3FFE00
ENDCHAR
STARTCHAR u00AF
ENCODING 175
SWIDTH 816 0
DWIDTH 52 0
BBX 33 6 10 58
BITMAP
7FFFFFFF00
FFFFFFFF80
FFFFFFFF00
7FFFFFFE00
3FFFFFFC00
1FFFFFF800
ENDCHAR
STARTCHAR u00B0
ENCODING 176
SWIDTH 816 0
DWIDTH 52 0
BBX 40 35 6 29
BITMAP
07FFFFFFF0
0FFFFFFFF8
0FFFFFFFF0
27FFFFFFE4
73FFFFFFCE
F9FFFFFF9F
FC0000003F
FC0000003F
FC0000003F
FC0000003F
FC0000003F
FC0000003F
FC0000003F
FC0000003F
FC0000003F
FC0000003F
FC0000003F
FC0000003F
FC0000003F
FC0000003F
FC0000003F
FC0000003F
FC0000003F
FC0000003F
FC0000003F
FC0000003F
FC0000003F
FC0000001F
F80000000F
F3FFC3FFC7
E7FFC3FFE3
0FFFE7FFF0
0FFFE7FFF8
07FFC3FFF0
03FFC3FFE0
ENDCHAR
STARTCHAR u00B1
ENCODING 177
SWIDTH 816 0
DWIDTH 52 0
BBX 33 57 10 0
BITMAP
0007E00000
0007E00000
0007E00000
0007E00000
0007E00000
0007E00000
0007E00000
0007E00000
0007E00000
0007E00000
0007E00000
0007E00000
0007E00000
0007E00000
0007E00000
0007E00000
0007E00000
0007E00000
0007E00000
0003E00000
0003C00000
0001C00000
3FFDBFFC00
7FFD3FFE00
FFFE7FFF00
FFFE7FFF80
7FFD3FFF00
3FFDBFFE00
0001C00000
0003C00000
0003E00000
0007E00000
0007E00000
0007E00000
0007E00000
0007E00000
0007E00000
0007E00000
0007E00000
0007E00000
0007E00000
0007E00000
0007E00000
0007E00000
0007E00000
0007E00000
0007E00000
0007E00000
0007E00000
0007E00000
0000000000
1FFFFFF800
3FFFFFFC00
7FFFFFFE00
FFFFFFFF00
FFFFFFFF80
7FFFFFFF00
ENDCHAR
STARTCHAR u00B4
ENCODING 180
SWIDTH 816 0
DWIDTH 52 0
BBX 9 20 30 37
BITMAP
0180
0380
0380
0780
0F80
0F80
1F80
1F80
3F80
3F00
7F00
FE00
FE00
FC00
F800
F800
F000
F000
E000
E000
ENDCHAR
STARTCHAR u00B5
ENCODING 181
SWIDTH 816 0
DWIDTH 52 0
BBX 40 58 6 3
BITMAP
2000000004
700000000E
F80000001F
FC0000003F
FC0000003F
FC0000003F
FC0000003F
FC0000003F
FC0000003F
FC0000003F
FC0000003F
FC0000003F
FC0000003F
FC0000003F
FC0000003F
FC0000003F
FC0000003F
FC0000003F
FC0000003F
FC0000003F
FC0000003F
FC0000003F
FC0000003F
FC0000003F
FC0000001F
F80000000F
F3FFC3FFC7
E7FFC3FFE3
0FFFE7FFF0
0FFFE7FFF8
C7FFC3FFF0
F3FFC3FFE0
F800000000
FC00000000
FC00000000
FC00000000
FC00000000
FC00000000
FC00000000
FC00000000
FC00000000
FC00000000
FC00000000
FC00000000
FC00000000
FC00000000
FC00000000
FC00000000
FC00000000
FC00000000
FC00000000
FC00000000
FC00000000
FC00000000
FC00000000
F800000000
F000000000
6000000000
ENDCHAR
STARTCHAR u00B9
ENCODING 185
SWIDTH 816 0
DWIDTH 52 0
BBX 6 28 40 33
BITMAP
10
38
7C
FC
FC
FC
FC
FC
FC
FC
FC
FC
FC
FC
FC
FC
FC
FC
FC
FC
FC
FC
FC
FC
7C
3C
1C
0C
ENDCHAR
STARTCHAR u00BA
ENCODING 186
SWIDTH 816 0
DWIDTH 52 0
BBX 40 35 6 29
BITMAP
07FFFFFFF0
0FFFFFFFF8
0FFFFFFFF0
27FFFFFFE4
73FFFFFFCE
F9FFFFFF9F
FC0000003F
FC0000003F
FC0000003F
FC0000003F
FC0000003F
FC0000003F
FC0000003F
FC0000003F
FC0000003F
FC0000003F
FC0000003F
FC0000003F
FC0000003F
FC0000003F
FC0000003F
FC0000003F
FC0000003F
FC0000003F
FC0000003F
FC0000003F
FC0000003F
FC0000001F
F80000000F
F3FFC3FFC7
E7FFC3FFE3
0FFFE7FFF0
0FFFE7FFF8
07FFC3FFF0
03FFC3FFE0
ENDCHAR
STARTCHAR u00BF
ENCODING 191
SWIDTH 816 0
DWIDTH 52 0
BBX 40 57 6 0
BITMAP
00007E0000
00007E0000
00007E0000
00007E0000
00007E0000
00007E0000
00007E0000
00007E0000
00007E0000
00007E0000
00007E0000
00007E0000
00007E0000
00007E0000
00007E0000
00007E0000
00007E0000
00007E0000
00007E0000
00003E0000
00003C0000
00001C0000
03FFD80000
07FFD00000
0FFFE00000
0FFFE00000
C7FFC00003
F3FFC00007
F80000000F
FC0000001F
FC0000003F
FC0000003F
FC0000003F
FC0000003F
FC0000003F
FC0000003F
FC0000003F
FC0000003F
FC0000003F
FC0000003F
FC0000003F
FC0000003F
FC0000003F
FC0000003F
FC0000003F
FC0000003F
FC0000003F
FC0000003F
FC0000003F
FC0000003F
FC0000003F
F9FFFFFF9F
F3FFFFFFCF
67FFFFFFE6
0FFFFFFFF0
0FFFFFFFF8
07FFFFFFF0
ENDCHAR
ENDFONT
